mtllib materials.mtl
v 0.587456 0.388755 0.01844782
v 0.6119418 0.3887855 0.01340398
v 0.6138481 -0.5441635 0.01702467
v 0.5893623 -0.544194 0.02206847
v 0.6198169 0.3887094 -0.01032317
v 0.6217232 -0.5442396 -0.006702483
v 0.6032059 0.3886029 -0.02900651
v 0.6051122 -0.544346 -0.02538583
v 0.5787201 0.3885726 -0.02396271
v 0.5806264 -0.5443764 -0.02034202
v 0.570845 0.3886486 -0.0002355874
v 0.5727513 -0.5443004 0.003385127
v 0.5612108 0.4590507 0.01857364
v 0.5802548 0.466247 0.004063815
v 0.6206884 0.3878539 0.005538195
v 0.6012615 0.3815981 0.01997635
v 0.5789335 0.4632065 -0.02071548
v 0.6189417 0.3858584 -0.01932076
v 0.5585681 0.4529694 -0.03098476
v 0.5977679 0.3776072 -0.02974156
v 0.5395242 0.4457731 -0.01647481
v 0.578341 0.3713515 -0.01530337
v 0.5408455 0.4488136 0.008304358
v 0.5800878 0.3733469 0.009555548
v 0.4954662 0.5040146 0.02654317
v 0.4999052 0.5242029 0.01248181
v 0.5847716 0.461961 0.007499427
v 0.5681877 0.4509152 0.02259794
v 0.4960791 0.5233266 -0.0122081
v 0.5822899 0.4600726 -0.01730531
v 0.4878139 0.5022621 -0.02283666
v 0.5632243 0.4471387 -0.02701154
v 0.4833748 0.4820737 -0.008775264
v 0.5466404 0.4360929 -0.01191303
v 0.4872011 0.4829499 0.01591459
v 0.5491221 0.4379812 0.01289171
v 0.499819 0.5182754 0.004864246
v 0.4998254 0.5132785 0.02935976
v -1.129098 0.5152974 0.03018677
v -1.129104 0.5202944 0.00569126
v 0.4998001 0.4895662 0.03728005
v -1.129124 0.4915853 0.03810704
v 0.4997685 0.4708511 0.02070481
v -1.129155 0.4728699 0.02153179
v 0.4997622 0.475848 -0.003790736
v -1.129161 0.4778669 -0.002963722
v 0.4997874 0.4995602 -0.011711
v -1.129136 0.5015792 -0.01088399
v -1.264029 -0.5326825 0.04505858
v -1.288725 -0.5319008 0.0412496
v -1.254317 0.3998792 0.009419441
v -1.229621 0.3990972 0.01322833
v -1.297802 -0.5323613 0.01796004
v -1.263393 0.3994188 -0.01387021
v -1.282183 -0.5336034 -0.001520574
v -1.247774 0.3981763 -0.0333508
v -1.257487 -0.5343852 0.002288401
v -1.223078 0.3973945 -0.02954188
v -1.24841 -0.5339247 0.02557796
v -1.214002 0.397855 -0.006252319
v -1.247119 0.3873454 0.02233335
v -1.265641 0.3955208 0.007667631
v -1.217083 0.4691553 0.006058037
v -1.199042 0.460086 0.02079803
v -1.263897 0.3931603 -0.01715946
v -1.215874 0.4658018 -0.01868653
v -1.24363 0.3826244 -0.02732083
v -1.196623 0.4533783 -0.02869087
v -1.225108 0.3744489 -0.01265511
v -1.178583 0.4443089 -0.01395077
v -1.226852 0.3768095 0.01217198
v -1.179792 0.4476627 0.01079363
v -1.206881 0.45277 0.02480936
v -1.222061 0.4654007 0.009478629
v -1.1311 0.5183004 0.01486039
v -1.128959 0.4978627 0.02909839
v -1.219575 0.4630691 -0.01528794
v -1.12717 0.5168328 -0.009785205
v -1.201909 0.4481066 -0.02472377
v -1.1211 0.4949278 -0.02019277
v -1.186729 0.4354759 -0.009393066
v -1.118959 0.47449 -0.005954742
v -1.189215 0.4378077 0.0153735
v -1.122889 0.4759575 0.01869076
v 0.6141714 0.2926434 -0.01261815
v 0.6144049 0.2925307 -0.0007737279
v -1.257673 0.2638869 -0.00516364
v -1.258546 0.2639604 -0.01697859
v 0.6148751 0.2822208 0.005043805
v -1.255464 0.2537462 0.0005497336
v 0.6151115 0.2720239 -0.0009828806
v -1.254128 0.2436792 -0.005551517
v 0.6148778 0.2721367 -0.01282728
v -1.255001 0.2437528 -0.0173662
v 0.6144078 0.2824464 -0.0186449
v -1.257209 0.2538935 -0.02307984
v 0.5971862 0.09632421 0.001677245
v 0.5971951 0.09591782 0.01351753
v -1.268463 0.06456435 0.00767082
v -1.268911 0.06500638 -0.004159629
v 0.5975879 0.08546805 0.01908559
v -1.266862 0.05418503 0.01315403
v 0.5979718 0.07542455 0.01281357
v -1.26571 0.0442481 0.006807119
v 0.5979629 0.07583106 0.0009732842
v -1.266159 0.04469025 -0.00502342
v 0.5975701 0.0862807 -0.004594833
v -1.267759 0.05506968 -0.01050666
v 0.5986251 -0.2832789 -0.01321
v 0.5988716 -0.284274 -0.001407206
v -1.268455 -0.3253603 0.01851135
v -1.268304 -0.324756 0.006680429
v 0.5992986 -0.2949903 0.003626257
v -1.269104 -0.3358927 0.02389675
v 0.5994791 -0.3047115 -0.003142983
v -1.269602 -0.3458208 0.01745135
v 0.5992327 -0.3037163 -0.01494578
v -1.269451 -0.3452165 0.005620569
v 0.5988057 -0.2930001 -0.01997927
v -1.268801 -0.334684 0.0002351105
v 0.6167964 -0.08660662 -0.01809528
v 0.6172698 -0.08730996 -0.006278425
v -1.267503 -0.1322973 0.006294936
v -1.269859 -0.1324928 -0.00531432
v 0.6177802 -0.09789932 -0.00099051
v -1.26488 -0.1423563 0.01197699
v 0.6178173 -0.1077852 -0.007519335
v -1.264611 -0.152611 0.006050229
v 0.6173438 -0.1070817 -0.01933616
v -1.266966 -0.1528063 -0.005558908
v 0.6168333 -0.09649241 -0.02462414
v -1.26959 -0.1427472 -0.0112412
v 0.5532951 -0.5419348 0.05595958
v 0.6507927 -0.5401003 0.03890496
v 0.6514947 -0.5829742 0.03830665
v 0.5539972 -0.5848087 0.05536127
v 0.6337165 -0.5390193 -0.05860007
v 0.6344185 -0.5818931 -0.05919838
v 0.5362189 -0.5408537 -0.04154545
v 0.5369209 -0.5837276 -0.04214376
v -1.337458 -0.5108199 0.06537631
v -1.240927 -0.5078968 0.08712882
v -1.240099 -0.550722 0.08921045
v -1.33663 -0.5536451 0.06745794
v -1.219062 -0.5121627 -0.009327084
v -1.218235 -0.5549879 -0.007245451
v -1.315594 -0.5150858 -0.03107956
v -1.314766 -0.557911 -0.02899796
vn 0.201746 0.004213282 0.9794288
vn 0.9490893 0.003161685 0.3149913
vn 0.7473429 -0.001051587 -0.6644377
vn -0.2017459 -0.004213294 -0.9794288
vn -0.949089 -0.003161689 -0.3149923
vn -0.7473436 0.001051598 0.6644369
vn -0.002042288 0.9999904 -0.003883408
vn 0.002042073 -0.9999904 0.003881873
vn 0.512845 0.2798346 0.8115926
vn 0.8847091 0.4551026 -0.1008542
vn 0.3739891 0.1782593 -0.9101405
vn -0.5127205 -0.2801397 -0.8115661
vn -0.883059 -0.4582479 0.1010725
vn -0.3740377 -0.1781541 0.9101412
vn -0.4109621 0.9072574 -0.08941077
vn 0.3405378 -0.938823 0.05143351
vn 0.3912266 0.4734398 0.7891746
vn 0.5826952 0.8039065 -0.1191669
vn 0.2167787 0.3668292 -0.9046786
vn -0.3883281 -0.475545 -0.7893403
vn -0.5797611 -0.8060628 0.1189121
vn -0.219077 -0.3650742 0.9048349
vn -0.9436619 0.3018863 0.1355247
vn 0.5588695 -0.8292243 0.007211722
vn 0.001315825 0.97982 0.1998778
vn 0.000874144 0.3168098 0.9484888
vn -0.0004416583 -0.6630094 0.748611
vn -0.001315775 -0.97982 -0.1998779
vn -0.0008741344 -0.3168097 -0.9484888
vn 0.0004416667 0.6630093 -0.748611
vn 0.9999992 -0.0012387 -0.0005100979
vn -0.9999992 0.00123802 0.0005132274
vn -0.1510976 0.03932145 0.9877365
vn -0.9310358 0.04674469 0.3619217
vn -0.7799367 0.00742322 -0.6258143
vn 0.1510982 -0.03932153 -0.9877364
vn 0.9310349 -0.04674478 -0.3619238
vn 0.7799372 -0.007423231 0.6258137
vn 0.03688311 0.998737 -0.03411924
vn -0.03687727 -0.9987372 0.03411908
vn -0.4873129 0.3390069 0.8047363
vn -0.8303261 0.5458267 -0.1123916
vn -0.3448285 0.210038 -0.9148647
vn 0.4871566 -0.3392965 -0.8047089
vn 0.8283486 -0.5487768 0.1126175
vn 0.3448883 -0.2099391 0.9148648
vn 0.5059533 0.8576921 -0.09151901
vn -0.4389549 -0.8968589 0.05443072
vn -0.3455872 0.5183979 0.7821977
vn -0.4927584 0.8603804 -0.130134
vn -0.168499 0.3808557 -0.9091519
vn 0.3424829 -0.5201864 -0.7823756
vn 0.4896129 -0.8622155 0.1298597
vn 0.1709688 -0.3793533 0.9093189
vn 0.9691937 0.2008426 0.142569
vn -0.6439818 -0.7650053 0.007378083
vn -0.01532626 0.9998457 0.008585988
vn -0.009550505 0.4901793 0.8715693
vn 0.00571786 -0.5132117 0.858243
vn 0.01519045 -0.9998478 -0.008590133
vn 0.009550152 -0.4901919 -0.8715622
vn -0.005828898 0.5132091 -0.8582439
vn 0.9992125 0.03462444 -0.0193793
vn -0.9822075 -0.1736705 0.07146359
vn -0.01689386 0.999204 0.03613776
vn -0.01064699 0.4678645 0.8837361
vn 0.00623221 -0.5336328 0.8456933
vn 0.01682004 -0.999205 -0.03614595
vn 0.01064409 -0.467868 -0.8837343
vn -0.006279664 0.5336393 -0.8456889
vn 0.9992833 0.03785136 0.0005472148
vn -0.9902373 -0.1355577 0.03246874
vn -0.02133381 0.9974855 0.06758528
vn -3.124524E-06 0.4402523 0.8978741
vn 0.02131703 -0.5581724 0.8294512
vn 0.02130152 -0.9974855 -0.06759549
vn 1.913706E-06 -0.4402576 -0.8978715
vn -0.02133683 0.5581731 -0.8294502
vn 0.999345 0.0312582 -0.01823339
vn -0.9983546 0.05648694 -0.009874781
vn -0.02391605 0.9994122 0.02456034
vn -0.005135279 0.4685585 0.8834176
vn 0.01846007 -0.5256833 0.85048
vn 0.02384718 -0.9994139 -0.02456243
vn 0.0050669 -0.4685753 -0.8834091
vn -0.01873519 0.5256909 -0.8504694
vn 0.998845 0.02902758 -0.03828948
vn -0.9698529 -0.1404877 0.1991195
vn 0.1724965 -0.0109203 0.9849496
vn 0.9848741 0.01853137 -0.1722777
vn -0.1724964 0.01092077 -0.9849496
vn -0.9848741 -0.01853121 0.1722778
vn -0.0163708 0.9997687 0.01395204
vn 0.01637103 -0.9997687 -0.0139519
vn -0.2208667 0.0430923 0.9743516
vn 0.975113 0.02952756 0.2197334
vn 0.2208666 -0.04309183 -0.9743516
vn -0.975113 -0.02952739 -0.2197333
vn -0.01930122 0.9986347 -0.04854108
vn 0.01930137 -0.9986347 0.0485413
vt 0.2141153 -0.0510755
vt 0.2130434 -0.04881697
vt 0.1287587 -0.08881941
vt 0.1298306 -0.09107794
vt 0.1868382 0.03811332
vt 0.1853187 0.04009861
vt 0.1112311 -0.01660353
vt 0.1127506 -0.01858881
vt -0.1488871 0.1005465
vt -0.1508389 0.09898434
vt -0.09254071 0.02614603
vt -0.09058889 0.02770821
vt -0.2130434 -0.04881697
vt -0.2141153 -0.0510755
vt -0.1298306 -0.09107794
vt -0.1287587 -0.08881941
vt -0.1853188 0.0400984
vt -0.1868383 0.03811312
vt -0.1127506 -0.01858898
vt -0.1112312 -0.01660369
vt 0.1508388 0.09898461
vt 0.1488869 0.1005468
vt 0.09058878 0.0277084
vt 0.09254061 0.02614621
vt 0.003469265 -0.1400504
vt 0.005442038 -0.1385148
vt 0.005098539 -0.1360385
vt 0.002782258 -0.1350978
vt 0.0008094815 -0.1366334
vt 0.001152977 -0.1391097
vt -0.001153389 -0.1391095
vt -0.0008098887 -0.1366332
vt -0.002782664 -0.1350976
vt -0.005098946 -0.1360383
vt -0.005442447 -0.1385146
vt -0.003469672 -0.1400502
vt 0.2190403 -0.06048054
vt 0.2188492 -0.05798786
vt 0.2100276 -0.05792405
vt 0.21032 -0.0604069
vt 0.2175906 -0.05103548
vt 0.2175124 -0.0485367
vt 0.2088088 -0.04821788
vt 0.2087745 -0.05071764
vt -0.2190425 -0.0167328
vt -0.2190553 -0.01923276
vt -0.2105604 -0.01911778
vt -0.2103338 -0.01662808
vt -0.2187115 -0.05802069
vt -0.2189024 -0.06051339
vt -0.2105086 -0.06040713
vt -0.2102164 -0.05792426
vt -0.2170745 -0.05219558
vt -0.2171107 -0.0546953
vt -0.2086164 -0.05423175
vt -0.2086928 -0.05173293
vt 0.2194375 -0.01919165
vt 0.2194245 -0.01669171
vt 0.2107045 -0.01658844
vt 0.2109314 -0.01907811
vt -0.04479541 -0.06770387
vt -0.0423486 -0.06719092
vt -0.0415694 -0.06481546
vt -0.04323703 -0.06295292
vt -0.04568385 -0.06346586
vt -0.04646303 -0.06584133
vt 0.03347516 -0.07809698
vt 0.03270941 -0.07571714
vt 0.03026553 -0.07519038
vt 0.02858741 -0.07704346
vt 0.02935316 -0.0794233
vt 0.03179703 -0.07995006
vt 0.2111394 -0.07950208
vt 0.2129367 -0.07776453
vt 0.2036395 -0.07280749
vt 0.2031841 -0.07526559
vt 0.04543965 -0.2238005
vt 0.04780804 -0.2230001
vt 0.04382277 -0.2130647
vt 0.04151374 -0.2140231
vt -0.2261459 -0.06824932
vt -0.2242508 -0.06987982
vt -0.2165792 -0.06453441
vt -0.2173453 -0.06215474
vt -0.2123262 -0.07746802
vt -0.2105272 -0.07920387
vt -0.2036202 -0.0755216
vt -0.204078 -0.07306398
vt -0.04677608 -0.2215841
vt -0.04440586 -0.2223791
vt -0.0415094 -0.2152892
vt -0.04382063 -0.2143362
vt 0.2237456 -0.06874868
vt 0.2256376 -0.06711456
vt 0.2182373 -0.06196967
vt 0.2174756 -0.06435078
vt -0.05616602 0.1176064
vt -0.05372871 0.1181627
vt -0.05299179 0.1205516
vt -0.0546922 0.1223843
vt -0.05712952 0.121828
vt -0.05786644 0.1194391
vt 0.04094105 -0.02545153
vt 0.04011682 -0.0230913
vt 0.0376607 -0.022625
vt 0.03602881 -0.02451891
vt 0.03685304 -0.02687914
vt 0.03930916 -0.02734544
vt 0.05263614 -0.1307677
vt 0.05035618 -0.1317933
vt 0.1171796 -0.2803483
vt 0.1194596 -0.2793227
vt 0.2091207 -0.04034118
vt 0.2069662 -0.04160941
vt 0.2896008 -0.1819857
vt 0.2917552 -0.1807175
vt 0.1844281 -0.1165956
vt 0.1819518 -0.1169394
vt 0.2043532 -0.2782842
vt 0.2068294 -0.2779404
vt -0.05035619 -0.1317932
vt -0.05263615 -0.1307677
vt -0.1194596 -0.2793227
vt -0.1171796 -0.2803482
vt -0.2069663 -0.04160942
vt -0.2091207 -0.04034119
vt -0.2917552 -0.1807175
vt -0.2896008 -0.1819858
vt -0.1819519 -0.1169394
vt -0.1844281 -0.1165956
vt -0.2068294 -0.2779404
vt -0.2043532 -0.2782842
vt 0.139674 0.1244142
vt 0.1389447 0.1220229
vt 0.1406509 0.1201956
vt 0.1430865 0.1207597
vt 0.1438158 0.1231509
vt 0.1421096 0.1249781
vt -0.1421082 0.1249797
vt -0.1438145 0.1231525
vt -0.1430851 0.1207612
vt -0.1406496 0.1201972
vt -0.1389434 0.1220244
vt -0.1396727 0.1244157
vt 0.2147463 -0.2309208
vt 0.2160287 -0.2330669
vt 0.2961151 -0.18521
vt 0.2948326 -0.183064
vt 0.07524762 0.0606317
vt 0.07774115 0.06045184
vt 0.08445322 0.1535059
vt 0.0819597 0.1536858
vt -0.1824492 -0.1677684
vt -0.181125 -0.1656479
vt -0.260258 -0.1162306
vt -0.2615822 -0.1183511
vt -0.2160287 -0.2330668
vt -0.2147463 -0.2309208
vt -0.2948326 -0.1830638
vt -0.296115 -0.1852099
vt -0.07774214 0.06045144
vt -0.07524861 0.06063132
vt -0.08196111 0.1536853
vt -0.08445463 0.1535055
vt 0.1811249 -0.1656477
vt 0.1824491 -0.1677682
vt 0.2615821 -0.1183509
vt 0.2602579 -0.1162304
vt 0.05734307 -0.3184146
vt 0.05850961 -0.3206257
vt 0.06100779 -0.320721
vt 0.06233942 -0.3186052
vt 0.06117288 -0.316394
vt 0.05867469 -0.3162987
vt -0.05867437 -0.3162982
vt -0.06117256 -0.3163935
vt -0.06233911 -0.3186046
vt -0.06100748 -0.3207205
vt -0.0585093 -0.3206252
vt -0.05734275 -0.318414
vt 0.2453874 -0.09510881
vt 0.2477141 -0.09602363
vt 0.249898 -0.08747637
vt 0.247536 -0.08665703
vt -0.06489314 -0.06114426
vt -0.06255992 -0.06024648
vt -0.06587262 -0.0521917
vt -0.06824391 -0.05298353
vt -0.2694578 -0.2179558
vt -0.2675292 -0.216365
vt -0.2722234 -0.209284
vt -0.274281 -0.2107039
vt -0.2477652 -0.09589466
vt -0.2454385 -0.09498001
vt -0.2474727 -0.08683576
vt -0.2498347 -0.08765493
vt 0.06237353 -0.06084256
vt 0.06470729 -0.06173896
vt 0.06794687 -0.05387305
vt 0.06557512 -0.05308263
vt 0.267764 -0.2160536
vt 0.2696925 -0.2176444
vt 0.2745225 -0.2103835
vt 0.2724649 -0.2089636
vt 0.1047619 -0.3453635
vt 0.1069324 -0.3466038
vt 0.1090919 -0.3453442
vt 0.1090808 -0.3428442
vt 0.1069102 -0.3416039
vt 0.1047507 -0.3428635
vt -0.106477 -0.3428821
vt -0.1086329 -0.3416164
vt -0.110807 -0.3428507
vt -0.1108251 -0.3453506
vt -0.1086692 -0.3466163
vt -0.1064951 -0.345382
vt 0.2377424 -0.136752
vt 0.240223 -0.1370624
vt 0.2383144 -0.1267005
vt 0.2361141 -0.1278873
vt -0.02353537 -0.1994199
vt -0.02119021 -0.1985537
vt -0.02501864 -0.1885569
vt -0.02730006 -0.1895792
vt -0.2605816 -0.2378498
vt -0.2583949 -0.236638
vt -0.2603346 -0.2274911
vt -0.2628323 -0.2273842
vt -0.2404023 -0.1372002
vt -0.2379218 -0.1368893
vt -0.2365133 -0.1291899
vt -0.2387139 -0.1280037
vt 0.02129422 -0.1981726
vt 0.02363938 -0.1990387
vt 0.02631611 -0.1918631
vt 0.02403469 -0.1908408
vt 0.2589081 -0.2356519
vt 0.261095 -0.2368633
vt 0.2629555 -0.2280443
vt 0.2604578 -0.2281517
vt 0.2496423 0.04630476
vt 0.2507152 0.04856285
vt 0.2492961 0.05062102
vt 0.2468041 0.05042113
vt 0.2457312 0.04816303
vt 0.2471503 0.04610486
vt -0.1824843 -0.3022844
vt -0.1842178 -0.300483
vt -0.1866446 -0.3010837
vt -0.1873378 -0.3034856
vt -0.1856043 -0.3052869
vt -0.1831775 -0.3046864
vt 0.004865549 -0.1328224
vt 0.003742743 -0.1332004
vt 0.06735347 -0.3092936
vt 0.06849508 -0.3089769
vt 0.1691907 -0.04662157
vt 0.1681562 -0.04719887
vt 0.2637808 -0.2079656
vt 0.2648891 -0.2075469
vt 0.1863421 -0.08698243
vt 0.1851861 -0.08724142
vt 0.2270858 -0.2694315
vt 0.2282609 -0.2692811
vt -0.00374366 -0.1331828
vt -0.004866458 -0.1328048
vt -0.06842098 -0.3086841
vt -0.06727942 -0.3090009
vt -0.1681624 -0.04721766
vt -0.169197 -0.04664036
vt -0.26488 -0.2075211
vt -0.2637717 -0.2079397
vt -0.1851862 -0.08729839
vt -0.1863423 -0.08703941
vt -0.2283046 -0.2695723
vt -0.2271295 -0.2697227
vt 0.1282869 0.1110102
vt 0.1281519 0.1098332
vt 0.1291037 0.1091278
vt 0.1301906 0.1095994
vt 0.1303255 0.1107764
vt 0.1293737 0.1114818
vt -0.155337 0.1452293
vt -0.156212 0.1444306
vt -0.1559578 0.1432735
vt -0.1548286 0.1429151
vt -0.1539536 0.1437138
vt -0.1542078 0.1448709
vt 0.009227896 -0.1335819
vt 0.008117179 -0.1339941
vt 0.07361159 -0.3087152
vt 0.0747368 -0.3083444
vt 0.157112 -0.05616292
vt 0.1560805 -0.05674564
vt 0.2510043 -0.2172491
vt 0.25209 -0.2167747
vt 0.1690205 -0.09491986
vt 0.1678583 -0.0951495
vt 0.2070025 -0.2773882
vt 0.2081772 -0.2772346
vt -0.008105455 -0.1339645
vt -0.009216165 -0.1335523
vt -0.07467421 -0.3081226
vt -0.07354899 -0.3084934
vt -0.1560685 -0.05673494
vt -0.1571 -0.05615222
vt -0.2520743 -0.2167278
vt -0.2509887 -0.2172022
vt -0.1678522 -0.09517853
vt -0.1690144 -0.0949489
vt -0.2082084 -0.2774241
vt -0.2070338 -0.2775776
vt 0.1230576 0.08941321
vt 0.1228574 0.08824553
vt 0.1237686 0.08748832
vt 0.1248799 0.08789884
vt 0.1250801 0.08906652
vt 0.1241689 0.08982371
vt -0.1452115 0.1126854
vt -0.1460595 0.1118581
vt -0.1457669 0.11071
vt -0.1446264 0.1103894
vt -0.1437785 0.1112167
vt -0.144071 0.1123648
vt 0.01412817 -0.1322018
vt 0.01301469 -0.132606
vt 0.07820593 -0.3076489
vt 0.07930553 -0.3072084
vt 0.1316012 -0.07305869
vt 0.1305668 -0.07363582
vt 0.2235155 -0.2357798
vt 0.2244933 -0.2351111
vt 0.1343704 -0.1044751
vt 0.1332081 -0.1047036
vt 0.1699199 -0.2880285
vt 0.1710671 -0.287733
vt -0.01304469 -0.1325803
vt -0.01415815 -0.1321761
vt -0.07933722 -0.30737
vt -0.07823763 -0.3078105
vt -0.1305991 -0.07362405
vt -0.1316335 -0.07304693
vt -0.2244831 -0.2351579
vt -0.2235053 -0.2358265
vt -0.1332435 -0.10472
vt -0.1344058 -0.1044915
vt -0.171004 -0.2876197
vt -0.1698568 -0.2879152
vt 0.0941315 0.06436122
vt 0.09391136 0.06319714
vt 0.09480943 0.06242444
vt 0.09592763 0.06281585
vt 0.09614777 0.06397994
vt 0.0952497 0.06475262
vt -0.08420384 0.04267809
vt -0.08515765 0.04197536
vt -0.08502595 0.04079798
vt -0.08394046 0.04032334
vt -0.08298667 0.04102607
vt -0.08311836 0.04220345
vt 0.007426697 -0.1312962
vt 0.006299511 -0.1316585
vt 0.0696782 -0.3092216
vt 0.07084908 -0.3090459
vt 0.1432913 -0.06300516
vt 0.1422543 -0.0635774
vt 0.2363445 -0.226711
vt 0.2374673 -0.2263343
vt 0.1529379 -0.09580223
vt 0.1517841 -0.09606902
vt 0.1918586 -0.2800564
vt 0.1930171 -0.2798109
vt -0.006371503 -0.1316358
vt -0.007498689 -0.1312735
vt -0.0707493 -0.308836
vt -0.06957843 -0.3090116
vt -0.1423256 -0.06360507
vt -0.1433625 -0.06303285
vt -0.2374962 -0.2265809
vt -0.2363733 -0.2269577
vt -0.1518514 -0.0961113
vt -0.1530052 -0.09584455
vt -0.1930409 -0.2802748
vt -0.1918824 -0.2805202
vt 0.1004066 0.08495921
vt 0.1002517 0.08378466
vt 0.1011914 0.08306322
vt 0.1022861 0.08351633
vt 0.102441 0.08469088
vt 0.1015013 0.08541231
vt -0.04363762 0.1586659
vt -0.04473433 0.1582178
vt -0.04489457 0.1570439
vt -0.04395813 0.1563182
vt -0.04286144 0.1567664
vt -0.04270119 0.1579402
vt 0.1318447 -0.09407146
vt 0.1277576 -0.08505505
vt 0.1238518 -0.08682556
vt 0.1279389 -0.09584197
vt 0.0512774 0.06729368
vt 0.04204216 0.07085884
vt 0.04049776 0.06685822
vt 0.049733 0.06329305
vt -0.1277576 -0.08505506
vt -0.1318447 -0.09407146
vt -0.1279389 -0.09584197
vt -0.1238518 -0.08682556
vt -0.04204213 0.07085884
vt -0.05127737 0.06729367
vt -0.04973297 0.06329305
vt -0.04049773 0.06685822
vt 0.01065429 -0.1403779
vt 0.008947897 -0.1306265
vt -0.0008034225 -0.1323329
vt 0.0009029661 -0.1420843
vt -0.0009029388 -0.1420842
vt 0.0008034489 -0.1323329
vt -0.00894787 -0.1306265
vt -0.01065426 -0.1403778
vt 0.2199508 -0.2251319
vt 0.2152088 -0.2164421
vt 0.2114444 -0.2184963
vt 0.2161865 -0.2271861
vt 0.1460244 -0.03395716
vt 0.1393667 -0.02663081
vt 0.136193 -0.02951487
vt 0.1428507 -0.03684121
vt -0.2152088 -0.2164421
vt -0.2199508 -0.2251319
vt -0.2161865 -0.2271861
vt -0.2114445 -0.2184963
vt -0.1393666 -0.02663081
vt -0.1460243 -0.03395715
vt -0.1428506 -0.0368412
vt -0.1361929 -0.02951485
vt 0.05873095 -0.318146
vt 0.05363454 -0.3096592
vt 0.04514769 -0.3147556
vt 0.05024411 -0.3232425
vt -0.05024404 -0.3232425
vt -0.04514762 -0.3147556
vt -0.05363447 -0.3096592
vt -0.05873089 -0.318146
o group622475369
g mesh622475369
usemtl mat21
f 4/4/1 3/3/1 2/2/1 1/1/1
f 3/8/2 6/7/2 5/6/2 2/5/2
f 6/12/3 8/11/3 7/10/3 5/9/3
f 8/16/4 10/15/4 9/14/4 7/13/4
f 10/20/5 12/19/5 11/18/5 9/17/5
f 12/24/6 4/23/6 1/22/6 11/21/6
f 1/30/7 2/29/7 5/28/7 7/27/7 9/26/7 11/25/7
f 12/36/8 10/35/8 8/34/8 6/33/8 3/32/8 4/31/8
f 16/40/9 15/39/9 14/38/9 13/37/9
f 15/44/10 18/43/10 17/42/10 14/41/10
f 18/48/11 20/47/11 19/46/11 17/45/11
f 20/52/12 22/51/12 21/50/12 19/49/12
f 22/56/13 24/55/13 23/54/13 21/53/13
f 24/60/14 16/59/14 13/58/14 23/57/14
f 13/66/15 14/65/15 17/64/15 19/63/15 21/62/15 23/61/15
f 24/72/16 22/71/16 20/70/16 18/69/16 15/68/16 16/67/16
f 28/76/17 27/75/17 26/74/17 25/73/17
f 27/80/18 30/79/18 29/78/18 26/77/18
f 30/84/19 32/83/19 31/82/19 29/81/19
f 32/88/20 34/87/20 33/86/20 31/85/20
f 34/92/21 36/91/21 35/90/21 33/89/21
f 36/96/22 28/95/22 25/94/22 35/93/22
f 25/102/23 26/101/23 29/100/23 31/99/23 33/98/23 35/97/23
f 36/108/24 34/107/24 32/106/24 30/105/24 27/104/24 28/103/24
f 40/112/25 39/111/25 38/110/25 37/109/25
f 39/116/26 42/115/26 41/114/26 38/113/26
f 42/120/27 44/119/27 43/118/27 41/117/27
f 44/124/28 46/123/28 45/122/28 43/121/28
f 46/128/29 48/127/29 47/126/29 45/125/29
f 48/132/30 40/131/30 37/130/30 47/129/30
f 37/138/31 38/137/31 41/136/31 43/135/31 45/134/31 47/133/31
f 48/144/32 46/143/32 44/142/32 42/141/32 39/140/32 40/139/32
f 52/148/33 51/147/33 50/146/33 49/145/33
f 51/152/34 54/151/34 53/150/34 50/149/34
f 54/156/35 56/155/35 55/154/35 53/153/35
f 56/160/36 58/159/36 57/158/36 55/157/36
f 58/164/37 60/163/37 59/162/37 57/161/37
f 60/168/38 52/167/38 49/166/38 59/165/38
f 60/174/39 58/173/39 56/172/39 54/171/39 51/170/39 52/169/39
f 49/180/40 50/179/40 53/178/40 55/177/40 57/176/40 59/175/40
f 64/184/41 63/183/41 62/182/41 61/181/41
f 63/188/42 66/187/42 65/186/42 62/185/42
f 66/192/43 68/191/43 67/190/43 65/189/43
f 68/196/44 70/195/44 69/194/44 67/193/44
f 70/200/45 72/199/45 71/198/45 69/197/45
f 72/204/46 64/203/46 61/202/46 71/201/46
f 72/210/47 70/209/47 68/208/47 66/207/47 63/206/47 64/205/47
f 61/216/48 62/215/48 65/214/48 67/213/48 69/212/48 71/211/48
f 76/220/49 75/219/49 74/218/49 73/217/49
f 75/224/50 78/223/50 77/222/50 74/221/50
f 78/228/51 80/227/51 79/226/51 77/225/51
f 80/232/52 82/231/52 81/230/52 79/229/52
f 82/236/53 84/235/53 83/234/53 81/233/53
f 84/240/54 76/239/54 73/238/54 83/237/54
f 84/246/55 82/245/55 80/244/55 78/243/55 75/242/55 76/241/55
f 73/252/56 74/251/56 77/250/56 79/249/56 81/248/56 83/247/56
f 88/256/57 87/255/57 86/254/57 85/253/57
f 87/260/58 90/259/58 89/258/58 86/257/58
f 90/264/59 92/263/59 91/262/59 89/261/59
f 92/268/60 94/267/60 93/266/60 91/265/60
f 94/272/61 96/271/61 95/270/61 93/269/61
f 96/276/62 88/275/62 85/274/62 95/273/62
f 85/282/63 86/281/63 89/280/63 91/279/63 93/278/63 95/277/63
f 96/288/64 94/287/64 92/286/64 90/285/64 87/284/64 88/283/64
f 100/292/65 99/291/65 98/290/65 97/289/65
f 99/296/66 102/295/66 101/294/66 98/293/66
f 102/300/67 104/299/67 103/298/67 101/297/67
f 104/304/68 106/303/68 105/302/68 103/301/68
f 106/308/69 108/307/69 107/306/69 105/305/69
f 108/312/70 100/311/70 97/310/70 107/309/70
f 97/318/71 98/317/71 101/316/71 103/315/71 105/314/71 107/313/71
f 108/324/72 106/323/72 104/322/72 102/321/72 99/320/72 100/319/72
f 112/328/73 111/327/73 110/326/73 109/325/73
f 111/332/74 114/331/74 113/330/74 110/329/74
f 114/336/75 116/335/75 115/334/75 113/333/75
f 116/340/76 118/339/76 117/338/76 115/337/76
f 118/344/77 120/343/77 119/342/77 117/341/77
f 120/348/78 112/347/78 109/346/78 119/345/78
f 109/354/79 110/353/79 113/352/79 115/351/79 117/350/79 119/349/79
f 120/360/80 118/359/80 116/358/80 114/357/80 111/356/80 112/355/80
f 124/364/81 123/363/81 122/362/81 121/361/81
f 123/368/82 126/367/82 125/366/82 122/365/82
f 126/372/83 128/371/83 127/370/83 125/369/83
f 128/376/84 130/375/84 129/374/84 127/373/84
f 130/380/85 132/379/85 131/378/85 129/377/85
f 132/384/86 124/383/86 121/382/86 131/381/86
f 121/390/87 122/389/87 125/388/87 127/387/87 129/386/87 131/385/87
f 132/396/88 130/395/88 128/394/88 126/393/88 123/392/88 124/391/88
f 136/400/89 135/399/89 134/398/89 133/397/89
f 135/404/90 138/403/90 137/402/90 134/401/90
f 138/408/91 140/407/91 139/406/91 137/405/91
f 140/412/92 136/411/92 133/410/92 139/409/92
f 133/416/93 134/415/93 137/414/93 139/413/93
f 140/420/94 138/419/94 135/418/94 136/417/94
f 144/424/95 143/423/95 142/422/95 141/421/95
f 143/428/96 146/427/96 145/426/96 142/425/96
f 146/432/97 148/431/97 147/430/97 145/429/97
f 148/436/98 144/435/98 141/434/98 147/433/98
f 141/440/99 142/439/99 145/438/99 147/437/99
f 148/444/100 146/443/100 143/442/100 144/441/100
